<svg xmlns="http://www.w3.org/2000/svg" viewBox="0 0 465.65 460.74"><defs><style>.cls-1{fill:#facd19;}</style></defs><g id="Layer_2" data-name="Layer 2"><g id="Layer_1-2" data-name="Layer 1"><path class="cls-1" d="M16.11,206.65v46.64H0V181.36H15.38c6.65,0,6.69,0,9.08,6.26,4.33,11.4,8.61,22.84,12.92,34.25.21.56.5,1.09,1,2.15,2.73-7.19,5.26-13.88,7.82-20.56S51.33,190.05,54,183.4c.36-.88,1.47-2,2.25-2.06,6.82-.16,13.64-.09,20.72-.09,0,3.53,0,6.82,0,10.12q0,29.24-.08,58.46c0,3.78,0,3.78-3.89,3.77-3.23,0-6.47-.15-9.7,0-2.14.1-2.77-.68-2.76-2.76.06-13.2,0-26.4,0-39.6v-4l-.67-.16c-.82,1.88-1.67,3.76-2.45,5.66C53.29,222.91,49.12,233,45.07,243.2c-.6,1.49-1.31,2.13-2.93,2.05-3-.17-6.72.84-8.94-.55s-2.67-5-3.81-7.77c-4.09-9.77-8.12-19.56-12.19-29.33a8.25,8.25,0,0,0-.6-1Z"/><path class="cls-1" d="M160.69,138.22c26.6,14.87,52.41,30.73,76.63,49.47l-23.89,29.75,30.81,36.14c-4.68,0-8.88-.36-13,.09-5.09.55-8.42-1.13-11.43-5.35-5-7-10.65-13.5-16.2-20.43-.72.9-1.34,1.63-1.92,2.4-5.4,7.17-10.82,14.32-16.16,21.54a3.83,3.83,0,0,1-3.53,1.83c-6.25-.11-12.51,0-19.41,0l29.24-35.83-29.39-36.4c7.44,0,14.31,0,21.18.08.66,0,1.44.92,1.91,1.59,4.38,6.24,8.7,12.53,13,18.79,1,1.38,2,2.72,3.15,4.37,3.95-5.86,7.69-11.41,11.58-17.21Z"/><path class="cls-1" d="M158.54,253.81c-5.7,0-10.88.06-16.06-.08a2.85,2.85,0,0,1-1.93-1.69q-2-5.56-3.67-11.25a2.37,2.37,0,0,0-2.65-2c-7.63,0-15.26,0-22.89.11a3.33,3.33,0,0,0-2.38,1.79c-1.4,3.59-2.6,7.27-3.75,11-.49,1.6-1.26,2.32-3,2.28-5-.11-10,0-15.52,0,1-2.68,1.75-4.91,2.55-7.14,7.53-21.12,15.09-42.23,22.53-63.38.7-2,1.63-2.59,3.65-2.54,5.29.12,10.59.09,15.89,0a2.6,2.6,0,0,1,3,2q11.61,33.72,23.31,67.42C157.88,251.13,158.08,252.09,158.54,253.81ZM132.1,225.68c-3-9.36-5.89-18.25-9-27.77l-9.43,27.77Z"/><path class="cls-1" d="M300.44,181.49h56.35v15.26h-8.61c-9.43,0-18.86.08-28.29,0-2,0-2.72.55-2.66,2.57.11,3.41.12,6.83,0,10.23-.1,2.21.62,3,2.88,2.94,8.8-.08,17.6,0,26.4.05h3.15v13.84c-.94,0-1.89.14-2.83.14-8.89,0-17.78.1-26.67,0-2.27,0-2.93.72-2.89,2.93.11,7,0,14,0,21v3.41c-5.44,0-10.62.05-15.79-.08-.44,0-1.18-1.22-1.23-1.91-.16-2.41-.09-4.84-.08-7.27q.06-30.17.13-60.35C300.29,183.37,300.38,182.49,300.44,181.49Z"/><path class="cls-1" d="M248.68,217.72l58.85,61.15-.15.37c-1.27-.61-2.54-1.25-3.82-1.84q-17.07-7.95-34.13-15.91a10,10,0,0,1-2.9-1.83q-20.44-20.87-40.81-41.8a9.41,9.41,0,0,1-.72-1l21.08-20.47c7.22-7,14.5-13.93,21.65-21a6.61,6.61,0,0,1,5.19-2.11c6.73.13,13.46.05,20.84.05Z"/><path class="cls-1" d="M465.65,196.75H441.11v3.71c0,16.71,0,33.41.07,50.11,0,2.35-.56,3.16-3,3.06-4.45-.19-8.91,0-13.59,0V196.85H400.19V181.6h65.46Z"/><path class="cls-1" d="M386.57,253.39H370.3V181.58h16.27Z"/><path class="cls-1" d="M425.42,290.59c-25.51,60.74-98,124-194.57,123.38-93.27-.64-163.55-62.91-191-123.59a44.72,44.72,0,0,0,4.65,0c1.84-.19,2.72.64,3.5,2.22,15.73,32.17,38.76,58.09,68,78.53a201.34,201.34,0,0,0,81,33.57,207.33,207.33,0,0,0,214.38-99c2-3.44,3.84-7,5.63-10.6C419.47,290,419.42,290,425.42,290.59Z"/><path class="cls-1" d="M281.61,48v-40c0-6,1.92-7.89,7.95-7.91,3.8,0,7.6-.07,11.39,0,4.83.11,6.94,2.25,6.92,7.05q-.18,40.67-.42,81.31c0,4-1.45,5.9-5.34,6.1a102.17,102.17,0,0,1-15.05-.27c-4.49-.45-5.5-2.07-5.49-6.54q0-19.87,0-39.73Z"/><path class="cls-1" d="M185.17,47q0,19.86,0,39.71c0,5.43-1.3,7.08-6.72,7.45a108.26,108.26,0,0,1-13.48,0c-4.43-.26-5.9-2-5.88-6.55.07-10.88.36-21.75.39-32.63,0-15.81-.06-31.61-.13-47.41,0-6.13,1.31-7.55,7.28-7.55,4.2,0,8.41,0,12.62,0s6,1.86,6,6q0,20.48,0,40.94Z"/><path class="cls-1" d="M277.5,37.15V56.32H189.27V37.15Z"/><path class="cls-1" d="M155,19.15V74.74c-5.25,0-10.34.16-15.43-.06-3.29-.14-4-2.68-4-5.5q-.06-18.15-.15-36.3c0-2.87-.12-5.74,0-8.61.14-3.52,1.4-4.95,4.83-5.08C145,19,149.85,19.15,155,19.15Z"/><path class="cls-1" d="M312,74.94V19.28c5.1,0,10.2-.23,15.26.09,2.6.16,4.07,2.08,4.06,4.92,0,14.67,0,29.34-.09,44-.05,5.49-1.41,6.63-6.85,6.64Z"/><path class="cls-1" d="M125,38.66c.84,4.53.38,7.52-3.64,10.27a194.4,194.4,0,0,0-51.12,51c-7.59,11-14.36,22.64-21.41,34-.85,1.37-1.61,2.21-3.32,2-1.52-.15-3.06,0-5.26,0C60.45,96.36,87.81,63.6,125,38.66Z"/><path class="cls-1" d="M342.18,39.12C379.39,63.26,406.34,96,425.82,136c-2.21,0-4.05.27-5.76-.1a4.49,4.49,0,0,1-2.36-2.31,241.52,241.52,0,0,0-24.78-39.6A209.28,209.28,0,0,0,346,49.37C341.89,46.56,341.25,43.59,342.18,39.12Z"/><path class="cls-1" d="M263.67,458.66l-4.84.72c-.9-8.49-1.77-16.75-2.64-25,5.09-2.57,7.43-1.78,9.71,3.12a61.45,61.45,0,0,0,5.76,10.36c.63-2.73,1.29-5.44,1.87-8.18.42-2,.48-4.08,1.18-5.94a4.68,4.68,0,0,1,2.7-2.61c4.83-1.32,4.85-1.21,5.65,3.83,1.06,6.65,2.16,13.3,3.28,20.25l-4.83.94c-.91-6.41-1.78-12.5-2.65-18.59l-.66-.08c-1.26,6.54-2.52,13.08-3.81,19.74l-3.79.78c-2.88-6.12-5.72-12.17-8.57-18.21l-.62.19C262.15,446.17,262.9,452.33,263.67,458.66Z"/><path class="cls-1" d="M420.55,384.63,405,375.78l-.55.72,11.46,12.72-4.35,2.95L396.05,373.6a28.94,28.94,0,0,1,4.17-3.47,4.08,4.08,0,0,1,3.4-.23c4.23,2.33,8.31,4.94,13.2,7.91-1.86-4.15-3.41-7.53-4.9-10.94-2.36-5.42-2.34-5.43,2.25-9.4l16,17.18,1-.69-3.13,3.32L417.32,366.1l-.87.58c1.85,4.33,3.55,8.73,5.59,13C423.12,381.88,423.06,383.4,420.55,384.63Z"/><path class="cls-1" d="M55.14,397.07,51.43,394l15.79-18.8c3.49,1.45,4.53,3.57,3.88,7.24a62.26,62.26,0,0,0-.48,14.49l8.71-12.36,3.8,2.82L68.69,407.13c-3.16-1.27-4.67-2.89-4-6.69.91-5.06.8-10.3,1.2-16.47C62,388.77,58.58,392.87,55.14,397.07Z"/><path class="cls-1" d="M376.06,407.25,370.93,410,369.16,407l9.52-5.27c4.66,5.31,4.84,12.13.51,16.07-5.9,5.37-13.57,5.43-18.4-.09-3.58-4.09-5.55-8.9-3.84-14.37s5.9-8.24,11.33-8.81c2.3-.24,4.73.76,7.1,1.2v1.95c-1.61.3-3.27,1-4.82.82-6.11-.72-10.71,3.88-8.86,9.74A18.92,18.92,0,0,0,367,416c2.41,2.19,6.49,1.27,8.95-1.11C378.1,412.9,378.16,411.27,376.06,407.25Z"/><path class="cls-1" d="M185,456.74l-6.78-3.38a9.12,9.12,0,0,1-9.07.26,9.52,9.52,0,0,1-3.69-3.73c-2-4.06-.17-7.51,5.26-10.63-1.58-6.09-1-8.4,2.51-9.69,3.31-1.22,8,.39,9.14,3.15,1.31,3.13-.09,5.54-5,8.25l3,5c1.61-2,2.84-4.64,6.22-2.23-2.63,3.71-6,7.67-.29,12.12Zm-11.88-14.67-1.12-.25c-.78,1.77-2,3.5-2.2,5.34a3.9,3.9,0,0,0,2.27,3.08c1.28.33,2.94-.41,4.25-1.06.23-.11-.3-2.16-.78-3.17A38.88,38.88,0,0,0,173.16,442.07Zm6.4-7.51c-1.55-1.07-2.65-2.34-3.25-2.14A3.93,3.93,0,0,0,174,435c-.14.85,1,1.91,1.59,2.88Z"/><path class="cls-1" d="M47.63,358l3.75,3.29c-3.55,3.92-7,7.62-10.3,11.43-1.81,2.08-3,4.35-.38,6.81,2.29,2.17,4.85,2.31,7.12,0,3.75-3.88,7.35-7.92,11.13-12l4,3.17c-4.59,4.8-8.91,9.65-13.65,14.05-1.34,1.23-4,1.72-5.93,1.49a9.82,9.82,0,0,1-6.67-15.91C40.06,366.11,43.86,362.23,47.63,358Z"/><path class="cls-1" d="M250.45,459.74c-3.51.75-6.11.95-6.9-3.08-.15-.8-1.83-1.55-2.93-1.84s-2.48.09-3.7-.06c-3.11-.38-5,.44-5.67,3.93-.59,3.22-3.29,1.6-5.64,1.92,3-8.29,5.71-16.24,8.81-24.05.38-1,2.7-1.4,4.19-1.58a3,3,0,0,1,2.5,1.4C244.29,444.05,247.3,451.79,250.45,459.74Zm-13-20.4-3.83,12.11,8.18-.56Z"/><path class="cls-1" d="M145.23,446.69c-5.63-1.13-5.95-1.5-6.44-6.79-.15-1.65-.44-3.28-.75-5.52-1.93,1.48-3.44,2.59-4.91,3.76-3.74,2.94-3.73,2.95-8.45.7,3.07-2.29,5.94-4.6,9-6.67,1.76-1.2,2.61-2.28,2.07-4.66a110.33,110.33,0,0,1-1.42-10.95l.74-.67c1.57,1.34,3.69,2.39,4.58,4.08s.64,4.14,1,6.89c2.15-1.67,3.71-3.5,5.67-4.21s4.11-.14,6.18-.14l.23,1.19c-2.64,2-5.21,4.14-7.95,6-1.91,1.32-2.57,2.76-2,5.1C143.72,438.72,144.4,442.68,145.23,446.69Z"/><path class="cls-1" d="M105.84,430.16l9.85-22.49,13.47,6.11-1.6,3.74-9-4.08-2.32,5.24,8.87,4.33-1.65,3.51-9-4.2c-.81,1.89-1.59,3.72-2.52,5.87l8.88,4.52-1.56,3.88Z"/><path class="cls-1" d="M107.39,409.66a38.09,38.09,0,0,1-3.32-4.23c-1.1-1.82-2.51-2.79-4.44-1.83s-2,2.6-.91,4.31,2.55,3.45,3.67,5.27a6.47,6.47,0,0,1-.28,7.9,7,7,0,0,1-7.51,2.68c-5.52-1.21-8-5.13-7-11.26,2.29.7,4.36,1.18,4.5,4.38,0,1,1.77,2.3,3,2.68a3.44,3.44,0,0,0,3-1.38,4.67,4.67,0,0,0-.09-3.7c-.93-1.9-2.46-3.5-3.58-5.32-1.65-2.65-1.76-5.41.3-7.87s4.73-2.82,7.69-1.85c4.64,1.53,6.74,4.81,6,9.48Z"/><path class="cls-1" d="M220.39,450.07l-8.28-.71c-.32,3.39-.63,6.58-1,9.93h-4.72c.52-8.41,1-16.66,1.57-25.37l14.26,1c-.14,1.56-.25,2.86-.39,4.52l-9.13-.63c-.14,1.94-.27,3.77-.44,6a43.24,43.24,0,0,0,5.51.64C221,445.41,221.88,446.74,220.39,450.07Z"/><path class="cls-1" d="M319.08,419.72c3.61-2.89,6.49-2.19,9.18.93a51.92,51.92,0,0,0,4.6,4.13c.2-2.67.42-4.6.46-6.54.08-3.41.84-6.24,5.41-6.6-.67,8.78-3.61,17.92,3,26.19l-5.54,2.44C335.24,429.28,325.63,426,319.08,419.72Z"/><path class="cls-1" d="M402.15,401.45l-4.45,3.63c-4.61-9.24-13.93-11.18-22.14-14.89,3-3.62,4.06-3.86,8.11-1.94,1,.48,2,1,3,1.47l3.66,1.79c-.41-2.76-.46-5.09-1.12-7.22-1.09-3.5-.12-5.86,3.47-7.57C394.78,385.37,393.11,395.33,402.15,401.45Z"/><path class="cls-1" d="M312.66,448.46l-8.46-23.87,4.67-1.54c2.36,6.46,4.62,12.68,7,19.27l9.61-2.87,1.58,4.11Z"/><path class="cls-1" d="M295.43,427.31c2.1,8.34,4.11,16.29,6.18,24.54l-4.7,1.29c-2.1-8.18-4.15-16.19-6.26-24.42Z"/><path class="cls-1" d="M78.65,414.21l-4.25-2.58,14.09-20.38,4.15,2.54Z"/></g></g></svg>