<svg xmlns="http://www.w3.org/2000/svg" viewBox="0 0 465.65 394.75"><defs><style>.cls-1{fill:#facd19;}</style></defs><g id="Layer_2" data-name="Layer 2"><g id="Layer_1-2" data-name="Layer 1"><path class="cls-1" d="M16.11,178.33V225H0V153c5.2,0,10.29,0,15.38,0,6.65,0,6.69,0,9.08,6.25,4.33,11.41,8.61,22.84,12.92,34.26.21.56.5,1.08,1,2.15,2.73-7.19,5.26-13.88,7.82-20.57s5.14-13.4,7.83-20.06c.36-.87,1.47-2,2.25-2,6.82-.16,13.64-.1,20.72-.1,0,3.53,0,6.83,0,10.13q0,29.22-.08,58.46c0,3.77,0,3.78-3.89,3.77-3.23,0-6.47-.15-9.7,0-2.14.09-2.77-.68-2.76-2.76.06-13.2,0-26.4,0-39.61V179l-.67-.17c-.82,1.89-1.67,3.76-2.45,5.67-4.15,10.13-8.32,20.25-12.37,30.41-.6,1.5-1.31,2.14-2.93,2-3-.16-6.72.85-8.94-.54s-2.67-5-3.81-7.77c-4.09-9.77-8.12-19.56-12.19-29.34a10,10,0,0,0-.6-1Z"/><path class="cls-1" d="M160.69,109.9c26.6,14.87,52.41,30.73,76.63,49.47l-23.89,29.75,30.81,36.14c-4.68,0-8.88-.36-13,.09-5.09.55-8.42-1.14-11.43-5.35-5-7-10.65-13.5-16.2-20.43-.72.89-1.34,1.63-1.92,2.4-5.4,7.17-10.82,14.32-16.16,21.54a3.83,3.83,0,0,1-3.53,1.83c-6.25-.12-12.51-.05-19.41-.05l29.24-35.83-29.39-36.4c7.44,0,14.31,0,21.18.07.66,0,1.44.92,1.91,1.59,4.38,6.25,8.7,12.54,13,18.8,1,1.38,2,2.72,3.15,4.37,3.95-5.86,7.69-11.42,11.58-17.21Q187,135.27,160.69,109.9Z"/><path class="cls-1" d="M158.54,225.49c-5.7,0-10.88.06-16.06-.08a2.88,2.88,0,0,1-1.93-1.69c-1.34-3.71-2.57-7.47-3.67-11.25a2.37,2.37,0,0,0-2.65-2c-7.63,0-15.26,0-22.89.11a3.3,3.3,0,0,0-2.38,1.79c-1.4,3.59-2.6,7.27-3.75,11a2.7,2.7,0,0,1-3,2.28c-5-.11-10,0-15.52,0,1-2.68,1.75-4.91,2.55-7.14,7.53-21.12,15.09-42.23,22.53-63.38.7-2,1.63-2.59,3.65-2.55,5.29.13,10.59.1,15.89,0a2.6,2.6,0,0,1,3,2q11.61,33.73,23.31,67.43C157.88,222.81,158.08,223.77,158.54,225.49ZM132.1,197.36l-9-27.78-9.43,27.78Z"/><path class="cls-1" d="M300.44,153.16h56.35v15.27c-2.91,0-5.76,0-8.61,0-9.43,0-18.86.08-28.29,0-2,0-2.72.55-2.66,2.56.11,3.41.12,6.83,0,10.24-.1,2.21.62,3,2.88,2.94,8.8-.08,17.6,0,26.4.05h3.15V198c-.94.05-1.89.14-2.83.15-8.89,0-17.78.09-26.67,0-2.27,0-2.93.72-2.89,2.92.11,7,0,14,0,21v3.41c-5.44,0-10.62.05-15.79-.09-.44,0-1.18-1.21-1.23-1.9-.16-2.41-.09-4.84-.08-7.27q.06-30.18.13-60.35C300.29,155,300.38,154.17,300.44,153.16Z"/><path class="cls-1" d="M248.68,189.4l58.85,61.15-.15.37c-1.27-.62-2.54-1.25-3.82-1.85q-17.07-7.95-34.13-15.9a10.2,10.2,0,0,1-2.9-1.83q-20.44-20.86-40.81-41.8a9.41,9.41,0,0,1-.72-1c7.07-6.86,14.07-13.68,21.08-20.47,7.22-7,14.5-13.93,21.65-21a6.61,6.61,0,0,1,5.19-2.11c6.73.12,13.46.05,20.84.05Z"/><path class="cls-1" d="M411.81,254.13C389.5,307.24,326.13,362.6,241.66,362c-81.57-.56-143-55-167.06-108.08,1.45,0,2.77.11,4.06,0,1.62-.18,2.39.55,3.07,1.94,13.76,28.13,33.89,50.8,59.46,68.67A175.8,175.8,0,0,0,212,353.89a181.29,181.29,0,0,0,187.47-86.54c1.78-3,3.36-6.14,4.93-9.27C406.61,253.64,406.57,253.62,411.81,254.13Z"/><path class="cls-1" d="M465.65,168.43H441.11v3.71c0,16.7,0,33.41.07,50.11,0,2.34-.56,3.15-3,3.05-4.45-.18-8.91-.05-13.59-.05V168.53H400.19V153.28h65.46Z"/><path class="cls-1" d="M286.05,42v-35c0-5.23,1.68-6.9,6.95-6.91,3.32,0,6.64-.06,10,0,4.22.1,6.07,2,6.05,6.17q-.15,35.55-.37,71.11c0,3.46-1.26,5.16-4.67,5.33a89,89,0,0,1-13.16-.24c-3.92-.39-4.8-1.81-4.8-5.72q0-17.37,0-34.74Z"/><path class="cls-1" d="M201.71,41.06q0,17.37,0,34.73c0,4.75-1.14,6.19-5.87,6.51a92.92,92.92,0,0,1-11.8,0c-3.87-.22-5.16-1.74-5.13-5.73.06-9.51.31-19,.33-28.53,0-13.82,0-27.64-.11-41.46,0-5.36,1.15-6.6,6.36-6.6,3.68,0,7.36,0,11,0s5.23,1.63,5.23,5.25q0,17.9,0,35.8Z"/><path class="cls-1" d="M282.46,32.48V49.25H205.3V32.48Z"/><path class="cls-1" d="M386.57,225.06H370.3v-71.8h16.27Z"/><path class="cls-1" d="M175.32,16.75V65.36c-4.59,0-9,.14-13.49,0-2.88-.13-3.48-2.35-3.49-4.82q-.06-15.87-.14-31.74c0-2.51-.1-5,0-7.53.12-3.07,1.22-4.32,4.22-4.43C166.61,16.63,170.82,16.75,175.32,16.75Z"/><path class="cls-1" d="M312.58,65.53V16.86c4.46,0,8.92-.2,13.35.08,2.27.14,3.55,1.82,3.54,4.3,0,12.83,0,25.66-.08,38.49,0,4.8-1.23,5.8-6,5.8C319.91,65.54,316.42,65.53,312.58,65.53Z"/><path class="cls-1" d="M149,33.8c.75,4,.34,6.59-3.18,9a169.83,169.83,0,0,0-44.7,44.62c-6.64,9.65-12.56,19.8-18.73,29.77-.74,1.2-1.4,1.93-2.9,1.78-1.32-.14-2.68,0-4.6,0C92.64,84.26,116.57,55.61,149,33.8Z"/><path class="cls-1" d="M339,34.21c32.54,21.11,56.11,49.71,73.15,84.68a25.77,25.77,0,0,1-5-.09,3.88,3.88,0,0,1-2.07-2,211.67,211.67,0,0,0-21.67-34.62,183,183,0,0,0-41.05-39C338.77,40.72,338.21,38.12,339,34.21Z"/><path class="cls-1" d="M269.47,393.1l-3.85.56c-.71-6.75-1.41-13.31-2.1-19.85,4.05-2,5.91-1.42,7.72,2.48a49.67,49.67,0,0,0,4.58,8.24c.5-2.17,1-4.33,1.49-6.5a33,33,0,0,1,.94-4.73,3.76,3.76,0,0,1,2.15-2.08c3.84-1.05,3.85-1,4.49,3,.85,5.29,1.72,10.58,2.61,16.1-1.33.27-2.51.5-3.84.75-.73-5.1-1.42-9.94-2.11-14.78l-.52-.07c-1,5.2-2,10.4-3,15.7l-3,.63-6.81-14.49-.5.16C268.26,383.16,268.86,388.06,269.47,393.1Z"/><path class="cls-1" d="M394.25,334.21l-12.35-7-.43.58,9.11,10.11-3.45,2.35c-3.82-4.55-8-9.54-12.37-14.77a23.57,23.57,0,0,1,3.32-2.76,3.25,3.25,0,0,1,2.7-.18c3.37,1.85,6.61,3.92,10.51,6.29-1.48-3.3-2.72-6-3.9-8.71-1.88-4.31-1.87-4.31,1.79-7.47q6.35,6.83,12.73,13.66l.79-.55c-.78.83-1.55,1.66-2.49,2.65l-8.53-8.89-.69.45c1.47,3.45,2.82,6.95,4.45,10.32C396.3,332,396.25,333.24,394.25,334.21Z"/><path class="cls-1" d="M103.6,344.11l-2.94-2.48q6.33-7.56,12.56-15c2.77,1.15,3.6,2.84,3.08,5.76a49.61,49.61,0,0,0-.38,11.53c2.29-3.25,4.58-6.51,6.93-9.83l3,2.24-11.49,15.74c-2.51-1-3.71-2.3-3.17-5.32.72-4,.64-8.19,1-13.1Z"/><path class="cls-1" d="M358.86,352.21l-4.08,2.19c-.46-.79-.88-1.53-1.4-2.44l7.57-4.19c3.7,4.23,3.85,9.65.4,12.79-4.69,4.27-10.79,4.31-14.63-.08-2.85-3.25-4.42-7.08-3.06-11.43s4.69-6.55,9-7c1.83-.19,3.77.6,5.65.95v1.56c-1.28.23-2.6.79-3.83.65-4.86-.57-8.52,3.08-7.05,7.74a15.18,15.18,0,0,0,4.24,6.25c1.93,1.74,5.17,1,7.13-.88C360.48,356.7,360.53,355.41,358.86,352.21Z"/><path class="cls-1" d="M206.93,391.57l-5.4-2.69a7.21,7.21,0,0,1-7.21.2,7.45,7.45,0,0,1-2.93-3c-1.61-3.23-.14-6,4.18-8.45-1.26-4.85-.78-6.68,2-7.71,2.63-1,6.34.31,7.27,2.51,1,2.49-.07,4.4-4,6.56.75,1.25,1.5,2.5,2.37,4,1.29-1.62,2.26-3.7,5-1.78-2.09,2.95-4.73,6.1-.23,9.64Zm-9.45-11.67-.89-.2c-.63,1.41-1.57,2.78-1.75,4.25a3.09,3.09,0,0,0,1.81,2.45c1,.26,2.33-.32,3.37-.84a5.66,5.66,0,0,0-.62-2.53A31.64,31.64,0,0,0,197.48,379.9Zm5.09-6c-1.23-.85-2.11-1.86-2.59-1.7a3.09,3.09,0,0,0-1.83,2c-.11.68.8,1.53,1.26,2.3Z"/><path class="cls-1" d="M97.63,313.06l3,2.63c-2.82,3.11-5.57,6.05-8.2,9.08-1.44,1.66-2.36,3.46-.3,5.42,1.82,1.72,3.86,1.84,5.66,0,3-3.09,5.85-6.3,8.85-9.56l3.15,2.52c-3.65,3.82-7.08,7.68-10.85,11.17a6.59,6.59,0,0,1-4.72,1.19,7.81,7.81,0,0,1-5.3-12.66C91.62,319.48,94.63,316.39,97.63,313.06Z"/><path class="cls-1" d="M259,394c-2.79.59-4.87.75-5.49-2.46-.12-.63-1.46-1.22-2.33-1.46a20.51,20.51,0,0,0-2.94,0c-2.48-.31-4,.35-4.52,3.12-.47,2.56-2.62,1.27-4.48,1.53,2.37-6.59,4.54-12.92,7-19.13.31-.77,2.16-1.11,3.34-1.26a2.45,2.45,0,0,1,2,1.11C254.06,381.47,256.45,387.63,259,394Zm-10.35-16.23c-1.15,3.62-2,6.41-3.05,9.63l6.51-.45C250.93,383.91,249.92,381.21,248.61,377.73Z"/><path class="cls-1" d="M175.26,383.58c-4.47-.9-4.73-1.2-5.12-5.41-.12-1.3-.35-2.6-.59-4.38-1.54,1.17-2.74,2.06-3.91,3-3,2.34-3,2.35-6.72.56,2.44-1.82,4.72-3.65,7.14-5.3,1.4-1,2.07-1.82,1.64-3.71-.63-2.84-.78-5.8-1.13-8.71l.59-.53c1.25,1.06,2.93,1.9,3.64,3.24s.51,3.29.76,5.48c1.72-1.32,2.95-2.78,4.51-3.34s3.27-.12,4.92-.12l.18,1c-2.1,1.61-4.14,3.29-6.32,4.79a3.35,3.35,0,0,0-1.57,4.06C174.06,377.23,174.6,380.39,175.26,383.58Z"/><path class="cls-1" d="M143.94,370.43l7.83-17.89,10.71,4.86-1.27,3-7.13-3.24c-.6,1.37-1.17,2.64-1.84,4.17l7.06,3.44c-.45.95-.85,1.78-1.32,2.79l-7.19-3.34c-.64,1.51-1.27,3-2,4.67l7.06,3.59-1.24,3.09Z"/><path class="cls-1" d="M145.16,354.12a32.48,32.48,0,0,1-2.64-3.36c-.87-1.45-2-2.22-3.53-1.46s-1.63,2.07-.72,3.43,2,2.75,2.92,4.19a5.16,5.16,0,0,1-.22,6.29,5.58,5.58,0,0,1-6,2.13c-4.4-1-6.41-4.08-5.6-9,1.82.56,3.47.94,3.58,3.48,0,.78,1.41,1.84,2.37,2.14a2.77,2.77,0,0,0,2.42-1.1,3.7,3.7,0,0,0-.07-2.95c-.75-1.51-2-2.78-2.85-4.23a5,5,0,0,1,.24-6.25c1.62-1.93,3.76-2.25,6.12-1.47,3.69,1.21,5.35,3.82,4.77,7.53Z"/><path class="cls-1" d="M235,386.26l-6.58-.56c-.26,2.69-.5,5.24-.75,7.9H224c.41-6.69.82-13.26,1.25-20.18l11.34.8c-.11,1.24-.2,2.27-.31,3.6l-7.26-.5-.35,4.76a35.15,35.15,0,0,0,4.38.51C235.56,382.56,236.23,383.61,235,386.26Z"/><path class="cls-1" d="M313.54,362.12c2.87-2.3,5.16-1.74,7.3.74a42.58,42.58,0,0,0,3.67,3.29c.15-2.12.33-3.66.36-5.2.06-2.72.67-5,4.3-5.25-.53,7-2.87,14.25,2.35,20.83l-4.4,1.94C326.39,369.73,318.75,367.08,313.54,362.12Z"/><path class="cls-1" d="M379.61,347.59l-3.53,2.89c-3.67-7.35-11.09-8.9-17.62-11.85,2.41-2.87,3.24-3.06,6.46-1.54.81.38,1.61.78,2.41,1.17l2.91,1.43a39.65,39.65,0,0,0-.89-5.75c-.86-2.78-.09-4.66,2.77-6C373.75,334.8,372.43,342.73,379.61,347.59Z"/><path class="cls-1" d="M308.44,385l-6.73-19,3.71-1.23L311,380.1l7.65-2.29c.4,1.06.78,2,1.26,3.28Z"/><path class="cls-1" d="M294.73,368.16c1.67,6.63,3.27,13,4.92,19.52l-3.75,1c-1.66-6.5-3.3-12.87-5-19.41Z"/><path class="cls-1" d="M122.31,357.74l-3.38-2.05c3.74-5.42,7.43-10.74,11.21-16.21l3.29,2Z"/></g></g></svg>